<svg width="26" height="26" viewBox="0 0 26 26" fill="none" xmlns="http://www.w3.org/2000/svg">
<rect x="1" y="1" width="24" height="24" rx="2" stroke="white" stroke-width="2"/>
<path d="M11.0739 12V9.024C11.0739 8.656 11.0859 8.28 11.1099 7.896C11.1419 7.504 11.1739 7.176 11.2059 6.912C11.2379 6.648 11.2579 6.48 11.2659 6.408H11.2179L9.69391 12H7.61791L6.08191 6.42H6.03391C6.04191 6.492 6.06191 6.66 6.09391 6.924C6.13391 7.18 6.16991 7.504 6.20191 7.896C6.23391 8.28 6.24991 8.656 6.24991 9.024V12H3.81391V3.744H7.55791L8.80591 8.508H8.85391L10.0899 3.744H13.7019V12H11.0739ZM15.1339 3.744H22.2739V5.724H17.7859V6.864H21.6259V8.76H17.7859V10.02H22.3579V12H15.1339V3.744ZM11.0739 22V19.024C11.0739 18.656 11.0859 18.28 11.1099 17.896C11.1419 17.504 11.1739 17.176 11.2059 16.912C11.2379 16.648 11.2579 16.48 11.2659 16.408H11.2179L9.69391 22H7.61791L6.08191 16.42H6.03391C6.04191 16.492 6.06191 16.66 6.09391 16.924C6.13391 17.18 6.16991 17.504 6.20191 17.896C6.23391 18.28 6.24991 18.656 6.24991 19.024V22H3.81391V13.744H7.55791L8.80591 18.508H8.85391L10.0899 13.744H13.7019V22H11.0739ZM15.1339 13.744H22.2739V15.724H17.7859V16.864H21.6259V18.76H17.7859V20.02H22.3579V22H15.1339V13.744Z" fill="white"/>
</svg>
