<svg width="26" height="26" viewBox="0 0 26 26" fill="none" xmlns="http://www.w3.org/2000/svg">
<rect x="1" y="1" width="24" height="24" rx="2" stroke="white" stroke-width="2"/>
<path d="M13.4416 12H11.9064V6.99609L9.20523 11.748C9.13883 11.8691 9.04508 11.9609 8.92398 12.0234C8.8068 12.0859 8.67984 12.1172 8.54313 12.1172C8.41031 12.1172 8.28531 12.0859 8.16813 12.0234C8.05484 11.9609 7.965 11.8691 7.89859 11.748L5.1857 6.99609V12H3.66227V4.24805C3.66227 4.07227 3.71305 3.91602 3.81461 3.7793C3.92008 3.64258 4.0568 3.55078 4.22477 3.50391C4.3068 3.48438 4.38883 3.47852 4.47086 3.48633C4.55289 3.49023 4.63102 3.50781 4.70523 3.53906C4.78336 3.56641 4.85367 3.60742 4.91617 3.66211C4.97867 3.71289 5.03141 3.77539 5.07438 3.84961L8.54313 9.87891L12.0119 3.84961C12.1017 3.70117 12.2248 3.5957 12.381 3.5332C12.5412 3.4707 12.7072 3.46094 12.8791 3.50391C13.0431 3.55078 13.1779 3.64258 13.2834 3.7793C13.3888 3.91602 13.4416 4.07227 13.4416 4.24805V12ZM21.9452 8.56641H17.1346V7.03125H21.9452V8.56641ZM22.6307 12H17.1346C16.9237 12 16.6932 11.9629 16.4432 11.8887C16.1932 11.8145 15.9608 11.6934 15.7459 11.5254C15.535 11.3535 15.3573 11.1328 15.2127 10.8633C15.0721 10.5898 15.0018 10.2559 15.0018 9.86133V4.36523C15.0018 4.25977 15.0213 4.16016 15.0604 4.06641C15.0995 3.97266 15.1522 3.89062 15.2186 3.82031C15.2889 3.75 15.3709 3.69531 15.4647 3.65625C15.5584 3.61719 15.66 3.59766 15.7694 3.59766H22.6307V5.12109H16.5252V9.86133C16.5252 10.0605 16.578 10.2129 16.6834 10.3184C16.7889 10.4238 16.9432 10.4766 17.1463 10.4766H22.6307V12ZM13.4416 22H11.9064V16.9961L9.20523 21.748C9.13883 21.8691 9.04508 21.9609 8.92398 22.0234C8.8068 22.0859 8.67984 22.1172 8.54313 22.1172C8.41031 22.1172 8.28531 22.0859 8.16813 22.0234C8.05484 21.9609 7.965 21.8691 7.89859 21.748L5.1857 16.9961V22H3.66227V14.248C3.66227 14.0723 3.71305 13.916 3.81461 13.7793C3.92008 13.6426 4.0568 13.5508 4.22477 13.5039C4.3068 13.4844 4.38883 13.4785 4.47086 13.4863C4.55289 13.4902 4.63102 13.5078 4.70523 13.5391C4.78336 13.5664 4.85367 13.6074 4.91617 13.6621C4.97867 13.7129 5.03141 13.7754 5.07438 13.8496L8.54313 19.8789L12.0119 13.8496C12.1017 13.7012 12.2248 13.5957 12.381 13.5332C12.5412 13.4707 12.7072 13.4609 12.8791 13.5039C13.0431 13.5508 13.1779 13.6426 13.2834 13.7793C13.3888 13.916 13.4416 14.0723 13.4416 14.248V22ZM21.9452 18.5664H17.1346V17.0312H21.9452V18.5664ZM22.6307 22H17.1346C16.9237 22 16.6932 21.9629 16.4432 21.8887C16.1932 21.8145 15.9608 21.6934 15.7459 21.5254C15.535 21.3535 15.3573 21.1328 15.2127 20.8633C15.0721 20.5898 15.0018 20.2559 15.0018 19.8613V14.3652C15.0018 14.2598 15.0213 14.1602 15.0604 14.0664C15.0995 13.9727 15.1522 13.8906 15.2186 13.8203C15.2889 13.75 15.3709 13.6953 15.4647 13.6562C15.5584 13.6172 15.66 13.5977 15.7694 13.5977H22.6307V15.1211H16.5252V19.8613C16.5252 20.0605 16.578 20.2129 16.6834 20.3184C16.7889 20.4238 16.9432 20.4766 17.1463 20.4766H22.6307V22Z" fill="white"/>
</svg>
