<svg width="26" height="26" viewBox="0 0 26 26" fill="none" xmlns="http://www.w3.org/2000/svg">
<rect x="0.5" y="0.5" width="25" height="25" rx="2.5" stroke="white"/>
<path d="M4.32031 17L5.88031 9.85H6.95031L5.39031 17H4.32031ZM4.28031 17L2.72031 9.85H3.79031L5.35031 17H4.28031ZM1.92031 17V9.85H3.33031V17H1.92031ZM6.34031 17V9.85H7.75031V17H6.34031ZM9.98109 17V15.9H12.6011V17H9.98109ZM10.0311 13.98V12.87H12.0011V13.98H10.0311ZM8.97109 9.85H10.3811V17H8.97109V9.85ZM10.0811 9.85H12.5011V10.95H10.0811V9.85ZM16 17L17.56 9.85H18.63L17.07 17H16ZM15.96 17L14.4 9.85H15.47L17.03 17H15.96ZM13.6 17V9.85H15.01V17H13.6ZM18.02 17V9.85H19.43V17H18.02ZM21.6608 17V15.9H24.2808V17H21.6608ZM21.7108 13.98V12.87H23.6808V13.98H21.7108ZM20.6508 9.85H22.0608V17H20.6508V9.85ZM21.7608 9.85H24.1808V10.95H21.7608V9.85Z" fill="white"/>
</svg>
