<svg width="26" height="26" viewBox="0 0 26 26" fill="none" xmlns="http://www.w3.org/2000/svg">
<path d="M10.172 12V7.8336C10.172 7.3184 10.1888 6.792 10.2224 6.2544C10.2672 5.7056 10.312 5.2464 10.3568 4.8768C10.4016 4.5072 10.4296 4.272 10.4408 4.1712H10.3736L8.24 12H5.3336L3.1832 4.188H3.116C3.1272 4.2888 3.1552 4.524 3.2 4.8936C3.256 5.252 3.3064 5.7056 3.3512 6.2544C3.396 6.792 3.4184 7.3184 3.4184 7.8336V12H0.00799999V0.4416H5.2496L6.9968 7.1112H7.064L8.7944 0.4416H13.8512V12H10.172ZM15.856 0.4416H25.852V3.2136H19.5688V4.8096H24.9448V7.464H19.5688V9.228H25.9696V12H15.856V0.4416ZM10.172 26V21.8336C10.172 21.3184 10.1888 20.792 10.2224 20.2544C10.2672 19.7056 10.312 19.2464 10.3568 18.8768C10.4016 18.5072 10.4296 18.272 10.4408 18.1712H10.3736L8.24 26H5.3336L3.1832 18.188H3.116C3.1272 18.2888 3.1552 18.524 3.2 18.8936C3.256 19.252 3.3064 19.7056 3.3512 20.2544C3.396 20.792 3.4184 21.3184 3.4184 21.8336V26H0.00799999V14.4416H5.2496L6.9968 21.1112H7.064L8.7944 14.4416H13.8512V26H10.172ZM15.856 14.4416H25.852V17.2136H19.5688V18.8096H24.9448V21.464H19.5688V23.228H25.9696V26H15.856V14.4416Z" fill="white"/>
</svg>
