<svg width="130" height="130" viewBox="0 0 130 130" fill="none" xmlns="http://www.w3.org/2000/svg">
<g filter="url(#filter0_dd)">
<path d="M38.5713 88.3208C43.8304 88.9229 48.8707 90.7174 54.0236 91.8615C59.4726 93.071 64.9777 94.0083 70.4827 94.9248C70.5928 94.9434 70.6969 94.9434 70.8014 94.9466C70.9756 94.9843 71.1592 95.0076 71.3651 94.9977C75.6007 94.794 79.7949 94.2506 83.9781 93.5652C84.2488 93.5206 84.4696 93.4313 84.662 93.3192C87.0835 92.8105 89.5463 91.6708 90.8708 89.4825C92.0276 87.5709 92.2201 85.445 91.9404 83.3146C95.1941 80.4583 96.563 76.6611 95.6076 72.4349C99.9318 67.9001 100.174 61.8819 96.0345 57.2887C98.6497 52.8654 98.5685 47.9332 95.2486 43.7429C95.0323 43.47 94.7938 43.2884 94.5469 43.1766C94.3499 43.0453 94.12 42.9386 93.8384 42.8783C87.2905 41.4735 80.6 42.0724 75.0961 46.1444C74.5147 46.5742 74.2537 47.1579 74.2239 47.743C74.1466 47.9558 74.0947 48.1794 74.0848 48.4153C74.0747 48.5605 74.074 48.6128 74.0805 48.5931C74.0678 48.6716 74.0544 48.7508 74.0421 48.829C73.9897 49.1971 73.931 49.5623 73.9164 49.934C73.5563 49.921 73.1966 49.9065 72.8376 49.8795C75.3495 41.2935 74.3053 23.7105 61.3021 28.2581C60.2981 28.6088 59.8865 29.4704 59.9097 30.3098C59.8525 30.4926 59.8103 30.6873 59.8044 30.9058C59.6615 36.185 58.6074 41.1986 55.6651 45.6785C52.0562 51.1735 46.0743 50.7131 40.1569 50.0772C38.2477 49.8716 36.3005 49.3977 34.3709 49.5211C31.9883 49.6735 31.8322 50.3872 31.1875 52.3312C31.1199 52.5352 31.0727 52.7552 31.0727 53.0064C31.0727 63.7174 31.0836 74.4282 31.2433 85.1374C31.292 88.3889 36.3602 88.0681 38.5713 88.3208ZM45.3041 54.4939C57.9889 55.0566 63.2862 43.5129 63.8473 31.8192C71.6311 30.5567 70.3699 44.2695 68.7447 49.3149C68.4956 49.2648 68.2456 49.2242 67.9966 49.1684C65.4335 48.597 64.3443 52.5303 66.912 53.1025C72.3136 54.3075 77.6988 54.3104 83.1268 53.2729C85.7093 52.7794 84.613 48.8467 82.0422 49.339C80.6937 49.5966 79.3467 49.7671 77.9997 49.8638C78.004 49.7853 78.004 49.7535 77.9997 49.7687C78.0125 49.6895 78.0259 49.611 78.0385 49.5321C78.0628 49.3578 78.0889 49.1836 78.1111 49.0094C82.4481 46.2151 87.3806 45.7243 92.4544 46.7546C94.7748 49.8066 93.9299 53.2745 91.8744 56.2262C91.5182 56.738 91.4508 57.2406 91.5644 57.684C91.5132 58.1987 91.6835 58.7411 92.1935 59.2085C95.8488 62.5618 95.8056 66.5632 92.3206 69.9643C91.5177 70.332 90.9667 71.1528 91.3288 72.2493C92.3873 75.457 91.8185 78.3816 89.0363 80.4861C88.9485 80.5521 88.8787 80.6266 88.8051 80.6995C88.0595 81.1017 87.5234 81.9021 87.759 82.9602C88.0824 84.4171 88.2595 86.1268 87.3489 87.4234C86.4134 88.7541 84.7433 89.1798 83.2341 89.4607C83.0082 89.5032 82.8199 89.5791 82.6489 89.6683C78.9054 90.2749 75.1573 90.7351 71.3659 90.9181C71.322 90.9204 71.285 90.9323 71.2426 90.936C62.1219 89.4144 53.0314 87.83 44.1971 85.0407C44.1093 85.0131 44.0273 85.0044 43.943 84.9874C45.1618 74.8391 46.0866 64.7033 45.3041 54.4939ZM41.211 54.2826C41.9929 64.1903 41.1565 74.0289 39.9935 83.8753C38.4326 83.7718 36.8718 83.6701 35.3095 83.5696C35.1752 73.6587 35.1563 63.7478 35.1556 53.8362C37.182 53.8579 39.1987 54.0265 41.211 54.2826Z" fill="#ffffff"/>
<path fill-rule="evenodd" clip-rule="evenodd" d="M65 15C37.3858 15 15 37.3858 15 65C15 92.6142 37.3858 115 65 115C92.6142 115 115 92.6142 115 65C115 37.3858 92.6142 15 65 15ZM65 19C39.5949 19 19 39.5949 19 65C19 90.4051 39.5949 111 65 111C90.4051 111 111 90.4051 111 65C111 39.5949 90.4051 19 65 19Z" fill="#FFFFFF"/>
</g>
<defs>
<filter id="filter0_dd" x="0" y="0" width="130" height="130" filterUnits="userSpaceOnUse" color-interpolation-filters="sRGB">
<feFlood flood-opacity="0" result="BackgroundImageFix"/>
<feColorMatrix in="SourceAlpha" type="matrix" values="0 0 0 0 0 0 0 0 0 0 0 0 0 0 0 0 0 0 127 0"/>
<feOffset/>
<feGaussianBlur stdDeviation="7.5"/>
<feColorMatrix type="matrix" values="0 0 0 0 0 0 0 0 0 1 0 0 0 0 0.4 0 0 0 1 0"/>
<feBlend mode="normal" in2="BackgroundImageFix" result="effect1_dropShadow"/>
<feColorMatrix in="SourceAlpha" type="matrix" values="0 0 0 0 0 0 0 0 0 0 0 0 0 0 0 0 0 0 127 0"/>
<feOffset/>
<feGaussianBlur stdDeviation="2.5"/>
<feColorMatrix type="matrix" values="0 0 0 0 1 0 0 0 0 1 0 0 0 0 1 0 0 0 1 0"/>
<feBlend mode="normal" in2="effect1_dropShadow" result="effect2_dropShadow"/>
<feBlend mode="normal" in="SourceGraphic" in2="effect2_dropShadow" result="shape"/>
</filter>
</defs>
</svg>
