<svg width="100" height="100" viewBox="0 0 100 100" fill="none" xmlns="http://www.w3.org/2000/svg">
<path fill-rule="evenodd" clip-rule="evenodd" d="M50 100C77.6142 100 100 77.6142 100 50C100 22.3858 77.6142 0 50 0C22.3858 0 0 22.3858 0 50C0 77.6142 22.3858 100 50 100ZM75.5736 51.9688C76.7452 50.7972 76.7452 48.8977 75.5736 47.7262L44.9688 17.1213C43.7972 15.9498 41.8977 15.9498 40.7261 17.1213L37.0211 20.8264C35.8495 21.9979 35.8495 23.8974 37.0211 25.069L59.6783 47.7262C60.8498 48.8977 60.8498 50.7972 59.6783 51.9688L37.0211 74.6259C35.8495 75.7975 35.8495 77.697 37.0211 78.8686L40.7261 82.5736C41.8977 83.7452 43.7972 83.7452 44.9688 82.5736L75.5736 51.9688Z" fill="#C4C4C4"/>
</svg>
