<svg width="32" height="26" viewBox="0 0 32 26" fill="none" xmlns="http://www.w3.org/2000/svg">
<g id="person_add_24px">
<g id="icon/social/person_add_24px" filter="url(#filter0_d)">
<path fill-rule="evenodd" clip-rule="evenodd" d="M19 13C21.21 13 23 11.21 23 9C23 6.79 21.21 5 19 5C16.79 5 15 6.79 15 9C15 11.21 16.79 13 19 13ZM19 7C20.1 7 21 7.9 21 9C21 10.1 20.1 11 19 11C17.9 11 17 10.1 17 9C17 7.9 17.9 7 19 7ZM11 19C11 16.34 16.33 15 19 15C21.67 15 27 16.34 27 19V21H11V19ZM13 19C13.22 18.28 16.31 17 19 17C21.7 17 24.8 18.29 25 19H13ZM10 13V16H8V13H5V11H8V8H10V11H13V13H10Z" fill="white"/>
</g>
</g>
<defs>
<filter id="filter0_d" x="0" y="0" width="32" height="26" filterUnits="userSpaceOnUse" color-interpolation-filters="sRGB">
<feFlood flood-opacity="0" result="BackgroundImageFix"/>
<feColorMatrix in="SourceAlpha" type="matrix" values="0 0 0 0 0 0 0 0 0 0 0 0 0 0 0 0 0 0 127 0"/>
<feOffset/>
<feGaussianBlur stdDeviation="2.5"/>
<feColorMatrix type="matrix" values="0 0 0 0 0.791667 0 0 0 0 0.875 0 0 0 0 1 0 0 0 1 0"/>
<feBlend mode="normal" in2="BackgroundImageFix" result="effect1_dropShadow"/>
<feBlend mode="normal" in="SourceGraphic" in2="effect1_dropShadow" result="shape"/>
</filter>
</defs>
</svg>
