<svg width="655" height="96" viewBox="0 0 655 96" fill="none" xmlns="http://www.w3.org/2000/svg">
<path d="M260 18.5L362 25.625L457.5 41.5L516.5 51L572.693 63.625L654.425 89.5H0.575439L82.3066 63.625L188.5 47.5L240.5 42.5L263.5 34L266.5 30L191 15.5L196 13L295.5 0L240.5 15L260 18.5Z" fill="#C7E1FF"/>
<path d="M260 18.5L362 25.625L457.5 41.5L516.5 51L572.693 63.625L654.425 89.5H0.575439L82.3066 63.625L188.5 47.5L240.5 42.5L263.5 34L266.5 30L191 15.5L196 13L295.5 0L240.5 15L260 18.5Z" fill="url(#paint0_linear)"/>
<path d="M428.5 24.875L441.768 10.775L480.402 4.5083L492.5 19L483.915 51.5083L454 49.5083L432 38.5083L428.5 24.875Z" fill="#C4C4C4"/>
<path d="M428.5 24.875L441.768 10.775L480.402 4.5083L492.5 19L483.915 51.5083L454 49.5083L432 38.5083L428.5 24.875Z" fill="url(#paint1_radial)"/>
<path d="M472.585 43.1563V25.7609L490.034 19.4354L506.085 33.9354L502.585 49.4354L480 52.2164L472.585 43.1563Z" fill="#999999"/>
<path d="M472.585 43.1563V25.7609L490.034 19.4354L506.085 33.9354L502.585 49.4354L480 52.2164L472.585 43.1563Z" fill="url(#paint2_linear)"/>
<path d="M205 42.0774L207.041 28.2452L218.5 24L229.041 33.7312L228.5 44.5774L221 47.5774L211 48.5774L205 42.0774Z" fill="url(#paint3_linear)"/>
<path d="M196.859 47.1915L195 33L207.585 29L212.5 34.8583L210.5 47L206.5 48.5L196.859 47.1915Z" fill="url(#paint4_linear)"/>
<path d="M68.1487 65.8844L63.7266 52.3697L39.8899 35.8755L24.5 50.5L21.5 77.5L26 81.5L61.5151 73.7207L68.1487 65.8844Z" fill="url(#paint5_linear)"/>
<path d="M75 51.0999L81.0122 44.7999L98.5183 41.9999L104 48.4749L100.11 62.9999L86.5547 62.1063L76.5859 57.1914L75 51.0999Z" fill="url(#paint6_linear)"/>
<path d="M86.563 62.8085L83.8599 51.6112L66.4648 38.8695L56.5133 44.2738L51.8603 64.8702L67.2054 70.824L81.0993 69.762L86.563 62.8085Z" fill="url(#paint7_linear)"/>
<path d="M93.5668 69.9922L91.0378 62.263L77.4054 52.8299L70.172 56.0588L67.5949 69.8472L79.3852 74.5765L89.7731 74.4738L93.5668 69.9922Z" fill="url(#paint8_linear)"/>
<path d="M64.6394 66.6695L58.08 59.8896L38.9807 56.8763L33.0001 63.8445L37.2444 79.4759L52.0331 78.5142L62.9091 73.2249L64.6394 66.6695Z" fill="url(#paint9_linear)"/>
<path d="M199.161 48.8187L199.133 44.2137L193.528 37.664L189.161 38.8571L185.467 46.4472L190.894 50.1678L196.398 51.0252L199.161 48.8187Z" fill="url(#paint10_linear)"/>
<path d="M189.227 47.4426L188.95 44.2033L184.507 39.2853L181.397 39.8804L179.133 45.0109L183.289 47.9297L187.341 48.8398L189.227 47.4426Z" fill="url(#paint11_linear)"/>
<path d="M185.485 47.7049L183.552 44.4664L176.395 41.5469L173.43 43.7118L173.652 50.1834L179.495 51.1617L184.212 50.0979L185.485 47.7049Z" fill="url(#paint12_linear)"/>
<path d="M412.875 10L418 30L406 29.0654L412.875 10Z" fill="url(#paint13_linear)"/>
<path d="M418.875 13L424 32L412 31.1121L418.875 13Z" fill="url(#paint14_linear)"/>
<path d="M621.177 32L631 70L608 68.2243L621.177 32Z" fill="url(#paint15_linear)"/>
<path d="M556.885 17L565 52L546 50.3645L556.885 17Z" fill="url(#paint16_linear)"/>
<path d="M570.62 4L587.12 59L552 55L570.62 4Z" fill="url(#paint17_linear)"/>
<path d="M589.62 10L602.5 68L571 61L589.62 10Z" fill="url(#paint18_linear)"/>
<path d="M609.62 21L623.5 74.5L593 69.5L609.62 21Z" fill="url(#paint19_linear)"/>
<line x1="23" y1="82.5" x2="632" y2="82.5" stroke="#A6BDDC" stroke-opacity="0.2"/>
<line x1="29" y1="80.5" x2="626" y2="80.5" stroke="#A6BDDC" stroke-opacity="0.2"/>
<line x1="17" y1="84.5" x2="638" y2="84.5" stroke="#A6BDDC" stroke-opacity="0.4"/>
<line x1="11" y1="86.5" x2="644" y2="86.5" stroke="#A6BDDC" stroke-opacity="0.6"/>
<defs>
<linearGradient id="paint0_linear" x1="327.5" y1="41" x2="327.5" y2="89" gradientUnits="userSpaceOnUse">
<stop offset="0.466381" stop-color="#C6E0FF"/>
<stop offset="0.575762" stop-color="#BCD6F5"/>
<stop offset="0.721604" stop-color="#A3BBDA"/>
<stop offset="0.940367" stop-color="#647697"/>
</linearGradient>
<radialGradient id="paint1_radial" cx="0" cy="0" r="1" gradientUnits="userSpaceOnUse" gradientTransform="translate(478.5 33.5) rotate(-159.717) scale(24.5204 33.3895)">
<stop stop-color="#777777"/>
<stop offset="1" stop-color="#C4C4C4"/>
</radialGradient>
<linearGradient id="paint2_linear" x1="483.5" y1="37.5" x2="458.5" y2="23" gradientUnits="userSpaceOnUse">
<stop stop-color="#999999"/>
<stop offset="1" stop-color="white"/>
</linearGradient>
<linearGradient id="paint3_linear" x1="219" y1="42.5" x2="198.931" y2="24.9687" gradientUnits="userSpaceOnUse">
<stop stop-color="#999999"/>
<stop offset="1" stop-color="white"/>
</linearGradient>
<linearGradient id="paint4_linear" x1="209" y1="45" x2="197.494" y2="37.247" gradientUnits="userSpaceOnUse">
<stop stop-color="#777777"/>
<stop offset="1" stop-color="#C4C4C4"/>
</linearGradient>
<linearGradient id="paint5_linear" x1="45.7827" y1="57.6917" x2="29.6513" y2="38.2027" gradientUnits="userSpaceOnUse">
<stop stop-color="#269F56"/>
<stop offset="1" stop-color="#8CE1AE"/>
</linearGradient>
<linearGradient id="paint6_linear" x1="93.5" y1="56.4999" x2="79.5351" y2="41.7819" gradientUnits="userSpaceOnUse">
<stop stop-color="#269F56"/>
<stop offset="1" stop-color="#8CE1AE"/>
</linearGradient>
<linearGradient id="paint7_linear" x1="69.8761" y1="57.0072" x2="56.8018" y2="42.9481" gradientUnits="userSpaceOnUse">
<stop stop-color="#269F56"/>
<stop offset="1" stop-color="#8CE1AE"/>
</linearGradient>
<linearGradient id="paint8_linear" x1="80.7756" y1="65.3067" x2="71.5499" y2="54.1608" gradientUnits="userSpaceOnUse">
<stop stop-color="#269F56"/>
<stop offset="1" stop-color="#8CE1AE"/>
</linearGradient>
<linearGradient id="paint9_linear" x1="54.9203" y1="71.4898" x2="38.8703" y2="57.3213" gradientUnits="userSpaceOnUse">
<stop stop-color="#269F56"/>
<stop offset="1" stop-color="#8CE1AE"/>
</linearGradient>
<linearGradient id="paint10_linear" x1="193.197" y1="45.0348" x2="189.395" y2="38.3675" gradientUnits="userSpaceOnUse">
<stop stop-color="#269F56"/>
<stop offset="1" stop-color="#8CE1AE"/>
</linearGradient>
<linearGradient id="paint11_linear" x1="184" y1="42.5" x2="182.139" y2="39.2559" gradientUnits="userSpaceOnUse">
<stop stop-color="#269F56"/>
<stop offset="1" stop-color="#8CE1AE"/>
</linearGradient>
<linearGradient id="paint12_linear" x1="182" y1="48.4999" x2="176.317" y2="41.7303" gradientUnits="userSpaceOnUse">
<stop stop-color="#269F56"/>
<stop offset="1" stop-color="#8CE1AE"/>
</linearGradient>
<linearGradient id="paint13_linear" x1="407.706" y1="10.3738" x2="416.557" y2="28.0437" gradientUnits="userSpaceOnUse">
<stop stop-color="#139959"/>
<stop offset="1" stop-color="#00361C"/>
</linearGradient>
<linearGradient id="paint14_linear" x1="413.706" y1="13.3551" x2="421.853" y2="30.4764" gradientUnits="userSpaceOnUse">
<stop stop-color="#139959"/>
<stop offset="1" stop-color="#00361C"/>
</linearGradient>
<linearGradient id="paint15_linear" x1="611.269" y1="32.7103" x2="627.998" y2="66.4001" gradientUnits="userSpaceOnUse">
<stop stop-color="#139959"/>
<stop offset="1" stop-color="#00361C"/>
</linearGradient>
<linearGradient id="paint16_linear" x1="548.701" y1="17.6542" x2="565.092" y2="47.2605" gradientUnits="userSpaceOnUse">
<stop stop-color="#139959"/>
<stop offset="1" stop-color="#00361C"/>
</linearGradient>
<linearGradient id="paint17_linear" x1="556.62" y1="5" x2="580.12" y2="52.5" gradientUnits="userSpaceOnUse">
<stop stop-color="#139959"/>
<stop offset="1" stop-color="#00361C"/>
</linearGradient>
<linearGradient id="paint18_linear" x1="575.62" y1="11" x2="599.12" y2="58.5" gradientUnits="userSpaceOnUse">
<stop stop-color="#139959"/>
<stop offset="1" stop-color="#00361C"/>
</linearGradient>
<linearGradient id="paint19_linear" x1="595.62" y1="22" x2="619.12" y2="69.5" gradientUnits="userSpaceOnUse">
<stop stop-color="#139959"/>
<stop offset="1" stop-color="#00361C"/>
</linearGradient>
</defs>
</svg>
