<svg width="461" height="414" viewBox="0 0 461 414" fill="none" xmlns="http://www.w3.org/2000/svg">
<mask id="mask0_1144_714" style="mask-type:alpha" maskUnits="userSpaceOnUse" x="0" y="0" width="461" height="414">
<rect width="461" height="414" fill="#D9D9D9"/>
</mask>
<g mask="url(#mask0_1144_714)">
<rect width="461" height="414" fill="#121218"/>
<ellipse cx="225.502" cy="305.999" rx="71.5" ry="23" fill="url(#paint0_radial_1144_714)"/>
<g filter="url(#filter0_d_1144_714)">
<path d="M292.52 209.499C292.52 215.499 294.02 283.499 224.52 283.499C154.02 283.499 157.02 209.499 157.02 209.499C157.02 169.999 221.52 87.9988 224.52 84.9988C227.52 87.9988 292.52 159.499 292.52 209.499Z" fill="url(#paint1_linear_1144_714)"/>
</g>
<circle cx="196.503" cy="219.499" r="12.5" fill="#090000"/>
<path d="M269.003 219.499C269.003 226.402 263.406 225.5 256.503 225.5C249.599 225.5 244.003 226.402 244.003 219.499C244.003 212.595 249.599 206.999 256.503 206.999C263.406 206.999 269.003 212.595 269.003 219.499Z" fill="#090000"/>
<path d="M287.5 241.5C286.5 244 298.5 268 298.5 268C298.5 268 296.5 265.5 290 262.5C283.5 259.5 283 275.5 300.5 279.5C300.5 279.5 318.876 282.212 316 271C313.125 259.789 292.771 226.5 291.5 224.5C290.5 231.5 288.5 239 287.5 241.5Z" fill="black"/>
<g filter="url(#filter1_i_1144_714)">
<path d="M125.75 267.282C133.876 267.509 167.126 263.412 225.936 253.389C249.653 248.204 306.552 242.547 311.334 242.076C311.57 242.053 311.769 242.098 311.965 242.231C312.798 242.798 315.081 244.803 315.892 250.141C316.892 256.721 314.77 260.076 313.376 261.568C312.724 262.267 279.543 267.39 228.744 269.944C177.945 272.498 127.268 279.04 127.076 279.598C126.714 280.648 126.841 282.719 124.388 282.962C120.157 283.381 119.497 278.388 118.776 274.555C118.643 271.52 116.827 264.621 122.299 264.108C123.366 263.782 125.241 264.917 125.75 267.282Z" fill="url(#paint2_linear_1144_714)"/>
</g>
<path d="M161.5 239C159 242 137.003 248.999 137.003 248.999C137.003 248.999 138.003 265.999 144.503 262.999C151.003 259.999 149.003 283.499 143.003 284.499C137.003 285.499 134.003 284.499 134.003 284.499C134.003 284.499 121.627 259.21 124.503 247.999C127.379 236.787 154.5 225 158 224C159 230.5 160 234.5 161.5 239Z" fill="black"/>
<path d="M288 254.216C274 256.716 288.466 274.57 290.5 274.217C317.5 269.521 302 251.716 288 254.216Z" fill="black"/>
<path d="M61.0938 38.3206L52.8564 60.9988H49.4897L58.9746 36.116H61.145L61.0938 38.3206ZM67.998 60.9988L59.7437 38.3206L59.6924 36.116H61.8628L71.3818 60.9988H67.998ZM67.5708 51.7874V54.4875H53.5913V51.7874H67.5708ZM89.5312 53.0862H92.8125C92.6416 54.6584 92.1916 56.0655 91.4624 57.3074C90.7332 58.5492 89.7021 59.5347 88.3691 60.2639C87.0361 60.9817 85.3727 61.3406 83.3789 61.3406C81.9206 61.3406 80.5933 61.0671 79.397 60.5203C78.2121 59.9734 77.1924 59.1986 76.3379 58.196C75.4834 57.182 74.8226 55.9687 74.3555 54.5559C73.8997 53.1318 73.6719 51.5481 73.6719 49.8049V47.3269C73.6719 45.5837 73.8997 44.0058 74.3555 42.593C74.8226 41.1689 75.4891 39.9498 76.355 38.9358C77.2323 37.9218 78.2861 37.1414 79.5166 36.5945C80.7471 36.0476 82.1313 35.7742 83.6694 35.7742C85.5493 35.7742 87.1387 36.1274 88.4375 36.8337C89.7363 37.5401 90.7446 38.5199 91.4624 39.7732C92.1916 41.0151 92.6416 42.4563 92.8125 44.0969H89.5312C89.3717 42.9348 89.0755 41.9379 88.6426 41.1062C88.2096 40.2631 87.5944 39.6137 86.7969 39.158C85.9993 38.7022 84.9569 38.4744 83.6694 38.4744C82.5643 38.4744 81.5902 38.6851 80.7471 39.1067C79.9154 39.5282 79.2147 40.1264 78.645 40.9011C78.0868 41.6759 77.6652 42.6044 77.3804 43.6868C77.0955 44.7691 76.9531 45.9711 76.9531 47.2927V49.8049C76.9531 51.024 77.0785 52.169 77.3291 53.24C77.5911 54.311 77.9842 55.2509 78.5083 56.0598C79.0324 56.8687 79.6989 57.5068 80.5078 57.9739C81.3167 58.4296 82.2738 58.6575 83.3789 58.6575C84.7803 58.6575 85.8968 58.4353 86.7285 57.991C87.5602 57.5466 88.1868 56.9086 88.6084 56.0769C89.0413 55.2452 89.349 54.2483 89.5312 53.0862ZM112.329 53.0862H115.61C115.439 54.6584 114.989 56.0655 114.26 57.3074C113.531 58.5492 112.5 59.5347 111.167 60.2639C109.834 60.9817 108.171 61.3406 106.177 61.3406C104.718 61.3406 103.391 61.0671 102.195 60.5203C101.01 59.9734 99.9902 59.1986 99.1357 58.196C98.2812 57.182 97.6204 55.9687 97.1533 54.5559C96.6976 53.1318 96.4697 51.5481 96.4697 49.8049V47.3269C96.4697 45.5837 96.6976 44.0058 97.1533 42.593C97.6204 41.1689 98.2869 39.9498 99.1528 38.9358C100.03 37.9218 101.084 37.1414 102.314 36.5945C103.545 36.0476 104.929 35.7742 106.467 35.7742C108.347 35.7742 109.937 36.1274 111.235 36.8337C112.534 37.5401 113.542 38.5199 114.26 39.7732C114.989 41.0151 115.439 42.4563 115.61 44.0969H112.329C112.17 42.9348 111.873 41.9379 111.44 41.1062C111.007 40.2631 110.392 39.6137 109.595 39.158C108.797 38.7022 107.755 38.4744 106.467 38.4744C105.362 38.4744 104.388 38.6851 103.545 39.1067C102.713 39.5282 102.013 40.1264 101.443 40.9011C100.885 41.6759 100.463 42.6044 100.178 43.6868C99.8934 44.7691 99.751 45.9711 99.751 47.2927V49.8049C99.751 51.024 99.8763 52.169 100.127 53.24C100.389 54.311 100.782 55.2509 101.306 56.0598C101.83 56.8687 102.497 57.5068 103.306 57.9739C104.115 58.4296 105.072 58.6575 106.177 58.6575C107.578 58.6575 108.695 58.4353 109.526 57.991C110.358 57.5466 110.985 56.9086 111.406 56.0769C111.839 55.2452 112.147 54.2483 112.329 53.0862ZM135.913 58.3157V60.9988H122.737V58.3157H135.913ZM123.403 36.116V60.9988H120.105V36.116H123.403ZM134.17 46.8142V49.4973H122.737V46.8142H134.17ZM135.742 36.116V38.8162H122.737V36.116H135.742ZM149.175 51.2405H142.527V48.5574H149.175C150.462 48.5574 151.505 48.3523 152.302 47.9421C153.1 47.532 153.681 46.9623 154.045 46.2332C154.421 45.504 154.609 44.6723 154.609 43.738C154.609 42.8835 154.421 42.0803 154.045 41.3284C153.681 40.5764 153.1 39.9726 152.302 39.5168C151.505 39.0497 150.462 38.8162 149.175 38.8162H143.296V60.9988H139.998V36.116H149.175C151.055 36.116 152.644 36.4407 153.943 37.0901C155.242 37.7395 156.227 38.6396 156.899 39.7903C157.572 40.9296 157.908 42.2341 157.908 43.7039C157.908 45.2989 157.572 46.6604 156.899 47.7883C156.227 48.9163 155.242 49.7764 153.943 50.3689C152.644 50.95 151.055 51.2405 149.175 51.2405ZM171.272 36.116V60.9988H168.025V36.116H171.272ZM179.27 36.116V38.8162H160.044V36.116H179.27ZM199.47 36.116V60.9988H196.223V36.116H199.47ZM207.468 36.116V38.8162H188.242V36.116H207.468ZM227.412 46.8142V49.4973H213.945V46.8142H227.412ZM214.458 36.116V60.9988H211.16V36.116H214.458ZM230.283 36.116V60.9988H227.002V36.116H230.283ZM251.953 58.3157V60.9988H238.777V58.3157H251.953ZM239.443 36.116V60.9988H236.145V36.116H239.443ZM250.21 46.8142V49.4973H238.777V46.8142H250.21ZM251.782 36.116V38.8162H238.777V36.116H251.782ZM279.741 53.0862H283.022C282.852 54.6584 282.402 56.0655 281.672 57.3074C280.943 58.5492 279.912 59.5347 278.579 60.2639C277.246 60.9817 275.583 61.3406 273.589 61.3406C272.131 61.3406 270.803 61.0671 269.607 60.5203C268.422 59.9734 267.402 59.1986 266.548 58.196C265.693 57.182 265.033 55.9687 264.565 54.5559C264.11 53.1318 263.882 51.5481 263.882 49.8049V47.3269C263.882 45.5837 264.11 44.0058 264.565 42.593C265.033 41.1689 265.699 39.9498 266.565 38.9358C267.442 37.9218 268.496 37.1414 269.727 36.5945C270.957 36.0476 272.341 35.7742 273.879 35.7742C275.759 35.7742 277.349 36.1274 278.647 36.8337C279.946 37.5401 280.955 38.5199 281.672 39.7732C282.402 41.0151 282.852 42.4563 283.022 44.0969H279.741C279.582 42.9348 279.285 41.9379 278.853 41.1062C278.42 40.2631 277.804 39.6137 277.007 39.158C276.209 38.7022 275.167 38.4744 273.879 38.4744C272.774 38.4744 271.8 38.6851 270.957 39.1067C270.125 39.5282 269.425 40.1264 268.855 40.9011C268.297 41.6759 267.875 42.6044 267.59 43.6868C267.306 44.7691 267.163 45.9711 267.163 47.2927V49.8049C267.163 51.024 267.288 52.169 267.539 53.24C267.801 54.311 268.194 55.2509 268.718 56.0598C269.242 56.8687 269.909 57.5068 270.718 57.9739C271.527 58.4296 272.484 58.6575 273.589 58.6575C274.99 58.6575 276.107 58.4353 276.938 57.991C277.77 57.5466 278.397 56.9086 278.818 56.0769C279.251 55.2452 279.559 54.2483 279.741 53.0862ZM306.675 47.7712V49.3435C306.675 51.212 306.441 52.8868 305.974 54.3679C305.507 55.849 304.835 57.108 303.958 58.1448C303.08 59.1816 302.026 59.9734 300.796 60.5203C299.577 61.0671 298.21 61.3406 296.694 61.3406C295.225 61.3406 293.875 61.0671 292.644 60.5203C291.425 59.9734 290.365 59.1816 289.465 58.1448C288.577 57.108 287.887 55.849 287.397 54.3679C286.908 52.8868 286.663 51.212 286.663 49.3435V47.7712C286.663 45.9028 286.902 44.2336 287.38 42.7639C287.87 41.2828 288.56 40.0238 289.448 38.9871C290.337 37.9389 291.391 37.1414 292.61 36.5945C293.84 36.0476 295.19 35.7742 296.66 35.7742C298.175 35.7742 299.543 36.0476 300.762 36.5945C301.992 37.1414 303.046 37.9389 303.923 38.9871C304.812 40.0238 305.49 41.2828 305.957 42.7639C306.436 44.2336 306.675 45.9028 306.675 47.7712ZM303.411 49.3435V47.7371C303.411 46.2559 303.257 44.9457 302.949 43.8064C302.653 42.6671 302.214 41.71 301.633 40.9353C301.052 40.1606 300.34 39.5738 299.497 39.175C298.665 38.7763 297.72 38.5769 296.66 38.5769C295.635 38.5769 294.706 38.7763 293.875 39.175C293.054 39.5738 292.348 40.1606 291.755 40.9353C291.174 41.71 290.724 42.6671 290.405 43.8064C290.086 44.9457 289.927 46.2559 289.927 47.7371V49.3435C289.927 50.836 290.086 52.1576 290.405 53.3083C290.724 54.4477 291.18 55.4104 291.772 56.1965C292.376 56.9713 293.088 57.558 293.909 57.9568C294.74 58.3556 295.669 58.5549 296.694 58.5549C297.765 58.5549 298.717 58.3556 299.548 57.9568C300.38 57.558 301.081 56.9713 301.65 56.1965C302.231 55.4104 302.67 54.4477 302.966 53.3083C303.263 52.1576 303.411 50.836 303.411 49.3435ZM330.771 47.7712V49.3435C330.771 51.212 330.538 52.8868 330.071 54.3679C329.604 55.849 328.931 57.108 328.054 58.1448C327.177 59.1816 326.123 59.9734 324.893 60.5203C323.674 61.0671 322.306 61.3406 320.791 61.3406C319.321 61.3406 317.971 61.0671 316.741 60.5203C315.522 59.9734 314.462 59.1816 313.562 58.1448C312.673 57.108 311.984 55.849 311.494 54.3679C311.004 52.8868 310.759 51.212 310.759 49.3435V47.7712C310.759 45.9028 310.999 44.2336 311.477 42.7639C311.967 41.2828 312.656 40.0238 313.545 38.9871C314.434 37.9389 315.487 37.1414 316.707 36.5945C317.937 36.0476 319.287 35.7742 320.757 35.7742C322.272 35.7742 323.639 36.0476 324.858 36.5945C326.089 37.1414 327.143 37.9389 328.02 38.9871C328.909 40.0238 329.587 41.2828 330.054 42.7639C330.532 44.2336 330.771 45.9028 330.771 47.7712ZM327.507 49.3435V47.7371C327.507 46.2559 327.354 44.9457 327.046 43.8064C326.75 42.6671 326.311 41.71 325.73 40.9353C325.149 40.1606 324.437 39.5738 323.594 39.175C322.762 38.7763 321.816 38.5769 320.757 38.5769C319.731 38.5769 318.803 38.7763 317.971 39.175C317.151 39.5738 316.444 40.1606 315.852 40.9353C315.271 41.71 314.821 42.6671 314.502 43.8064C314.183 44.9457 314.023 46.2559 314.023 47.7371V49.3435C314.023 50.836 314.183 52.1576 314.502 53.3083C314.821 54.4477 315.277 55.4104 315.869 56.1965C316.473 56.9713 317.185 57.558 318.005 57.9568C318.837 58.3556 319.766 58.5549 320.791 58.5549C321.862 58.5549 322.813 58.3556 323.645 57.9568C324.477 57.558 325.177 56.9713 325.747 56.1965C326.328 55.4104 326.767 54.4477 327.063 53.3083C327.359 52.1576 327.507 50.836 327.507 49.3435ZM339.009 36.116V60.9988H335.71V36.116H339.009ZM354.031 36.116L343.691 47.72L337.881 53.7527L337.334 50.2322L341.709 45.4128L350.066 36.116H354.031ZM350.852 60.9988L341.641 48.865L343.606 46.2502L354.783 60.9988H350.852ZM361.226 36.116V60.9988H357.927V36.116H361.226ZM383.032 58.3157V60.9988H369.856V58.3157H383.032ZM370.522 36.116V60.9988H367.224V36.116H370.522ZM381.289 46.8142V49.4973H369.856V46.8142H381.289ZM382.861 36.116V38.8162H369.856V36.116H382.861ZM400.378 54.7097C400.378 54.1287 400.287 53.616 400.105 53.1716C399.934 52.7159 399.626 52.3057 399.182 51.9412C398.749 51.5766 398.145 51.2291 397.371 50.8987C396.607 50.5683 395.639 50.2322 394.465 49.8904C393.235 49.5258 392.124 49.1213 391.133 48.677C390.142 48.2213 389.293 47.7029 388.586 47.1218C387.88 46.5408 387.339 45.8743 386.963 45.1223C386.587 44.3704 386.399 43.5102 386.399 42.5417C386.399 41.5733 386.598 40.679 386.997 39.8586C387.396 39.0383 387.965 38.3263 388.706 37.7224C389.458 37.1072 390.352 36.6287 391.389 36.2869C392.426 35.9451 393.582 35.7742 394.858 35.7742C396.727 35.7742 398.311 36.1331 399.609 36.8508C400.92 37.5572 401.917 38.4858 402.6 39.6365C403.284 40.7758 403.625 41.9949 403.625 43.2937H400.344C400.344 42.3595 400.145 41.5334 399.746 40.8157C399.347 40.0865 398.743 39.5168 397.935 39.1067C397.126 38.6851 396.1 38.4744 394.858 38.4744C393.685 38.4744 392.716 38.651 391.953 39.0042C391.19 39.3573 390.62 39.8359 390.244 40.4397C389.88 41.0435 389.697 41.7328 389.697 42.5076C389.697 43.0317 389.806 43.5102 390.022 43.9431C390.25 44.3647 390.597 44.7577 391.064 45.1223C391.543 45.4869 392.147 45.823 392.876 46.1306C393.617 46.4382 394.5 46.7345 395.525 47.0193C396.938 47.4181 398.157 47.8624 399.182 48.3523C400.208 48.8422 401.051 49.3948 401.711 50.01C402.384 50.6139 402.879 51.3031 403.198 52.0779C403.529 52.8412 403.694 53.7071 403.694 54.6755C403.694 55.6895 403.489 56.6067 403.079 57.427C402.668 58.2473 402.082 58.948 401.318 59.5291C400.555 60.1101 399.638 60.5601 398.567 60.8792C397.507 61.1868 396.322 61.3406 395.012 61.3406C393.861 61.3406 392.728 61.1811 391.611 60.8621C390.506 60.5431 389.498 60.0645 388.586 59.4265C387.686 58.7885 386.963 58.0024 386.416 57.0681C385.881 56.1225 385.613 55.0287 385.613 53.7869H388.894C388.894 54.6414 389.059 55.3762 389.39 55.9915C389.72 56.5953 390.17 57.0966 390.74 57.4954C391.321 57.8941 391.976 58.1903 392.705 58.384C393.446 58.5663 394.215 58.6575 395.012 58.6575C396.163 58.6575 397.137 58.498 397.935 58.179C398.732 57.8599 399.336 57.4042 399.746 56.8118C400.168 56.2193 400.378 55.5186 400.378 54.7097Z" fill="white"/>
<path d="M34.4507 358.321L26.2134 380.999H22.8467L32.3315 356.116H34.502L34.4507 358.321ZM41.355 380.999L33.1006 358.321L33.0493 356.116H35.2197L44.7388 380.999H41.355ZM40.9277 371.787V374.488H26.9482V371.787H40.9277ZM67.2119 356.116V380.999H63.8965L51.3696 361.807V380.999H48.0713V356.116H51.3696L63.9478 375.359V356.116H67.2119ZM79.79 380.999H74.5947L74.6289 378.316H79.79C81.5674 378.316 83.0485 377.945 84.2334 377.205C85.4183 376.453 86.307 375.405 86.8994 374.06C87.5033 372.705 87.8052 371.121 87.8052 369.309V367.788C87.8052 366.364 87.6343 365.1 87.2925 363.994C86.9507 362.878 86.4494 361.938 85.7886 361.175C85.1278 360.4 84.3188 359.813 83.3618 359.414C82.4162 359.016 81.3281 358.816 80.0977 358.816H74.4922V356.116H80.0977C81.7269 356.116 83.2137 356.389 84.5581 356.936C85.9025 357.472 87.0589 358.252 88.0273 359.278C89.0072 360.292 89.7591 361.522 90.2832 362.969C90.8073 364.405 91.0693 366.022 91.0693 367.823V369.309C91.0693 371.109 90.8073 372.733 90.2832 374.18C89.7591 375.615 89.0015 376.84 88.0103 377.854C87.0304 378.868 85.8455 379.649 84.4556 380.196C83.077 380.731 81.5218 380.999 79.79 380.999ZM76.355 356.116V380.999H73.0566V356.116H76.355ZM123.848 356.116V380.999H120.532L108.005 361.807V380.999H104.707V356.116H108.005L120.583 375.359V356.116H123.848ZM148.85 367.771V369.344C148.85 371.212 148.617 372.887 148.149 374.368C147.682 375.849 147.01 377.108 146.133 378.145C145.256 379.182 144.202 379.973 142.971 380.52C141.752 381.067 140.385 381.341 138.87 381.341C137.4 381.341 136.05 381.067 134.819 380.52C133.6 379.973 132.541 379.182 131.641 378.145C130.752 377.108 130.063 375.849 129.573 374.368C129.083 372.887 128.838 371.212 128.838 369.344V367.771C128.838 365.903 129.077 364.234 129.556 362.764C130.046 361.283 130.735 360.024 131.624 358.987C132.512 357.939 133.566 357.141 134.785 356.594C136.016 356.048 137.366 355.774 138.835 355.774C140.351 355.774 141.718 356.048 142.937 356.594C144.167 357.141 145.221 357.939 146.099 358.987C146.987 360.024 147.665 361.283 148.132 362.764C148.611 364.234 148.85 365.903 148.85 367.771ZM145.586 369.344V367.737C145.586 366.256 145.432 364.946 145.125 363.806C144.828 362.667 144.39 361.71 143.809 360.935C143.228 360.161 142.515 359.574 141.672 359.175C140.841 358.776 139.895 358.577 138.835 358.577C137.81 358.577 136.882 358.776 136.05 359.175C135.229 359.574 134.523 360.161 133.931 360.935C133.35 361.71 132.9 362.667 132.581 363.806C132.262 364.946 132.102 366.256 132.102 367.737V369.344C132.102 370.836 132.262 372.158 132.581 373.308C132.9 374.448 133.355 375.41 133.948 376.197C134.552 376.971 135.264 377.558 136.084 377.957C136.916 378.356 137.844 378.555 138.87 378.555C139.941 378.555 140.892 378.356 141.724 377.957C142.555 377.558 143.256 376.971 143.826 376.197C144.407 375.41 144.845 374.448 145.142 373.308C145.438 372.158 145.586 370.836 145.586 369.344ZM162.659 369.361H156.353L156.318 366.712H162.043C162.989 366.712 163.815 366.552 164.521 366.233C165.228 365.914 165.775 365.458 166.162 364.866C166.561 364.262 166.76 363.544 166.76 362.713C166.76 361.801 166.584 361.061 166.23 360.491C165.889 359.91 165.359 359.488 164.641 359.226C163.935 358.953 163.035 358.816 161.941 358.816H157.087V380.999H153.789V356.116H161.941C163.217 356.116 164.356 356.247 165.359 356.509C166.361 356.76 167.21 357.158 167.905 357.705C168.612 358.241 169.147 358.924 169.512 359.756C169.876 360.588 170.059 361.585 170.059 362.747C170.059 363.772 169.797 364.701 169.272 365.532C168.748 366.353 168.019 367.025 167.085 367.549C166.162 368.073 165.08 368.409 163.838 368.557L162.659 369.361ZM162.505 380.999H155.054L156.917 378.316H162.505C163.553 378.316 164.442 378.133 165.171 377.769C165.911 377.404 166.475 376.892 166.863 376.231C167.25 375.559 167.444 374.767 167.444 373.855C167.444 372.932 167.279 372.135 166.948 371.463C166.618 370.79 166.099 370.272 165.393 369.907C164.687 369.543 163.775 369.361 162.659 369.361H157.959L157.993 366.712H164.419L165.12 367.669C166.316 367.771 167.33 368.113 168.162 368.694C168.993 369.264 169.626 369.993 170.059 370.882C170.503 371.77 170.725 372.75 170.725 373.821C170.725 375.371 170.383 376.681 169.7 377.752C169.028 378.811 168.076 379.62 166.846 380.178C165.615 380.725 164.168 380.999 162.505 380.999ZM194.753 367.771V369.344C194.753 371.212 194.52 372.887 194.053 374.368C193.586 375.849 192.913 377.108 192.036 378.145C191.159 379.182 190.105 379.973 188.875 380.52C187.655 381.067 186.288 381.341 184.773 381.341C183.303 381.341 181.953 381.067 180.723 380.52C179.504 379.973 178.444 379.182 177.544 378.145C176.655 377.108 175.966 375.849 175.476 374.368C174.986 372.887 174.741 371.212 174.741 369.344V367.771C174.741 365.903 174.98 364.234 175.459 362.764C175.949 361.283 176.638 360.024 177.527 358.987C178.416 357.939 179.469 357.141 180.688 356.594C181.919 356.048 183.269 355.774 184.739 355.774C186.254 355.774 187.621 356.048 188.84 356.594C190.071 357.141 191.125 357.939 192.002 358.987C192.891 360.024 193.569 361.283 194.036 362.764C194.514 364.234 194.753 365.903 194.753 367.771ZM191.489 369.344V367.737C191.489 366.256 191.335 364.946 191.028 363.806C190.732 362.667 190.293 361.71 189.712 360.935C189.131 360.161 188.419 359.574 187.576 359.175C186.744 358.776 185.798 358.577 184.739 358.577C183.713 358.577 182.785 358.776 181.953 359.175C181.133 359.574 180.426 360.161 179.834 360.935C179.253 361.71 178.803 362.667 178.484 363.806C178.165 364.946 178.005 366.256 178.005 367.737V369.344C178.005 370.836 178.165 372.158 178.484 373.308C178.803 374.448 179.259 375.41 179.851 376.197C180.455 376.971 181.167 377.558 181.987 377.957C182.819 378.356 183.748 378.555 184.773 378.555C185.844 378.555 186.795 378.356 187.627 377.957C188.459 377.558 189.159 376.971 189.729 376.197C190.31 375.41 190.749 374.448 191.045 373.308C191.341 372.158 191.489 370.836 191.489 369.344ZM206.426 380.999H201.23L201.265 378.316H206.426C208.203 378.316 209.684 377.945 210.869 377.205C212.054 376.453 212.943 375.405 213.535 374.06C214.139 372.705 214.441 371.121 214.441 369.309V367.788C214.441 366.364 214.27 365.1 213.928 363.994C213.586 362.878 213.085 361.938 212.424 361.175C211.764 360.4 210.955 359.813 209.998 359.414C209.052 359.016 207.964 358.816 206.733 358.816H201.128V356.116H206.733C208.363 356.116 209.849 356.389 211.194 356.936C212.538 357.472 213.695 358.252 214.663 359.278C215.643 360.292 216.395 361.522 216.919 362.969C217.443 364.405 217.705 366.022 217.705 367.823V369.309C217.705 371.109 217.443 372.733 216.919 374.18C216.395 375.615 215.637 376.84 214.646 377.854C213.666 378.868 212.481 379.649 211.091 380.196C209.713 380.731 208.158 380.999 206.426 380.999ZM202.991 356.116V380.999H199.692V356.116H202.991ZM223.054 356.116L229.514 368.609L235.991 356.116H239.734L231.155 371.702V380.999H227.856V371.702L219.277 356.116H223.054ZM270 368.609V377.718C269.692 378.173 269.202 378.686 268.53 379.256C267.858 379.814 266.93 380.304 265.745 380.725C264.571 381.135 263.056 381.341 261.199 381.341C259.683 381.341 258.288 381.079 257.012 380.554C255.747 380.019 254.648 379.244 253.713 378.23C252.791 377.205 252.073 375.963 251.56 374.505C251.059 373.035 250.808 371.372 250.808 369.514V367.583C250.808 365.726 251.025 364.068 251.458 362.61C251.902 361.152 252.551 359.916 253.406 358.902C254.26 357.876 255.308 357.101 256.55 356.577C257.792 356.042 259.216 355.774 260.823 355.774C262.725 355.774 264.315 356.105 265.591 356.765C266.878 357.415 267.881 358.315 268.599 359.466C269.328 360.616 269.795 361.927 270 363.396H266.702C266.554 362.496 266.257 361.676 265.813 360.935C265.38 360.195 264.759 359.602 263.95 359.158C263.141 358.702 262.099 358.474 260.823 358.474C259.672 358.474 258.675 358.685 257.832 359.107C256.989 359.528 256.294 360.132 255.747 360.918C255.2 361.704 254.79 362.656 254.517 363.772C254.255 364.889 254.124 366.148 254.124 367.549V369.514C254.124 370.95 254.289 372.232 254.619 373.36C254.961 374.488 255.445 375.45 256.072 376.248C256.698 377.034 257.445 377.632 258.311 378.042C259.188 378.452 260.156 378.657 261.216 378.657C262.389 378.657 263.341 378.561 264.07 378.367C264.799 378.162 265.369 377.923 265.779 377.649C266.189 377.364 266.502 377.097 266.719 376.846V371.275H260.959V368.609H270ZM291.277 378.316V380.999H278.101V378.316H291.277ZM278.767 356.116V380.999H275.469V356.116H278.767ZM289.534 366.814V369.497H278.101V366.814H289.534ZM291.106 356.116V358.816H278.101V356.116H291.106ZM304.897 356.116V380.999H301.65V356.116H304.897ZM312.896 356.116V358.816H293.669V356.116H312.896ZM329.575 374.71C329.575 374.129 329.484 373.616 329.302 373.172C329.131 372.716 328.823 372.306 328.379 371.941C327.946 371.577 327.342 371.229 326.567 370.899C325.804 370.568 324.836 370.232 323.662 369.89C322.432 369.526 321.321 369.121 320.33 368.677C319.338 368.221 318.49 367.703 317.783 367.122C317.077 366.541 316.536 365.874 316.16 365.122C315.784 364.37 315.596 363.51 315.596 362.542C315.596 361.573 315.795 360.679 316.194 359.859C316.593 359.038 317.162 358.326 317.903 357.722C318.655 357.107 319.549 356.629 320.586 356.287C321.623 355.945 322.779 355.774 324.055 355.774C325.924 355.774 327.507 356.133 328.806 356.851C330.116 357.557 331.113 358.486 331.797 359.636C332.48 360.776 332.822 361.995 332.822 363.294H329.541C329.541 362.359 329.342 361.533 328.943 360.816C328.544 360.087 327.94 359.517 327.131 359.107C326.322 358.685 325.297 358.474 324.055 358.474C322.882 358.474 321.913 358.651 321.15 359.004C320.387 359.357 319.817 359.836 319.441 360.44C319.076 361.044 318.894 361.733 318.894 362.508C318.894 363.032 319.002 363.51 319.219 363.943C319.447 364.365 319.794 364.758 320.261 365.122C320.74 365.487 321.344 365.823 322.073 366.131C322.813 366.438 323.696 366.734 324.722 367.019C326.134 367.418 327.354 367.862 328.379 368.352C329.404 368.842 330.247 369.395 330.908 370.01C331.58 370.614 332.076 371.303 332.395 372.078C332.725 372.841 332.891 373.707 332.891 374.676C332.891 375.69 332.686 376.607 332.275 377.427C331.865 378.247 331.278 378.948 330.515 379.529C329.752 380.11 328.835 380.56 327.764 380.879C326.704 381.187 325.519 381.341 324.209 381.341C323.058 381.341 321.925 381.181 320.808 380.862C319.703 380.543 318.695 380.065 317.783 379.427C316.883 378.788 316.16 378.002 315.613 377.068C315.077 376.122 314.81 375.029 314.81 373.787H318.091C318.091 374.641 318.256 375.376 318.586 375.991C318.917 376.595 319.367 377.097 319.937 377.495C320.518 377.894 321.173 378.19 321.902 378.384C322.642 378.566 323.411 378.657 324.209 378.657C325.36 378.657 326.334 378.498 327.131 378.179C327.929 377.86 328.533 377.404 328.943 376.812C329.364 376.219 329.575 375.519 329.575 374.71ZM362.029 366.814V369.497H348.562V366.814H362.029ZM349.075 356.116V380.999H345.776V356.116H349.075ZM364.9 356.116V380.999H361.619V356.116H364.9ZM384.998 356.116H388.279V372.949C388.279 374.818 387.863 376.373 387.031 377.615C386.2 378.857 385.094 379.791 383.716 380.418C382.349 381.033 380.862 381.341 379.255 381.341C377.569 381.341 376.042 381.033 374.675 380.418C373.319 379.791 372.243 378.857 371.445 377.615C370.659 376.373 370.266 374.818 370.266 372.949V356.116H373.53V372.949C373.53 374.248 373.77 375.319 374.248 376.162C374.727 377.005 375.393 377.632 376.248 378.042C377.113 378.452 378.116 378.657 379.255 378.657C380.406 378.657 381.409 378.452 382.263 378.042C383.129 377.632 383.801 377.005 384.28 376.162C384.758 375.319 384.998 374.248 384.998 372.949V356.116ZM393.457 356.116H401.694C403.563 356.116 405.141 356.401 406.428 356.97C407.727 357.54 408.713 358.383 409.385 359.5C410.068 360.605 410.41 361.966 410.41 363.584C410.41 364.724 410.177 365.766 409.709 366.712C409.254 367.646 408.593 368.443 407.727 369.104C406.873 369.754 405.847 370.238 404.651 370.557L403.728 370.916H395.986L395.952 368.233H401.797C402.982 368.233 403.967 368.028 404.753 367.617C405.54 367.196 406.132 366.632 406.531 365.926C406.93 365.219 407.129 364.439 407.129 363.584C407.129 362.627 406.941 361.79 406.565 361.072C406.189 360.354 405.597 359.802 404.788 359.414C403.99 359.016 402.959 358.816 401.694 358.816H396.755V380.999H393.457V356.116ZM408 380.999L401.951 369.719L405.386 369.702L411.521 380.794V380.999H408ZM422.852 356.116V380.999H419.604V356.116H422.852ZM430.85 356.116V358.816H411.624V356.116H430.85Z" fill="white"/>
<path d="M256.499 228C263.498 228 272.521 226 267.999 234C263.476 242.001 253.498 242.001 245.999 234C238.5 226 249.5 228.001 256.499 228Z" fill="url(#paint3_radial_1144_714)" fill-opacity="0.5"/>
</g>
<defs>
<filter id="filter0_d_1144_714" x="7.00195" y="-61.0012" width="435.521" height="498.5" filterUnits="userSpaceOnUse" color-interpolation-filters="sRGB">
<feFlood flood-opacity="0" result="BackgroundImageFix"/>
<feColorMatrix in="SourceAlpha" type="matrix" values="0 0 0 0 0 0 0 0 0 0 0 0 0 0 0 0 0 0 127 0" result="hardAlpha"/>
<feOffset dy="4"/>
<feGaussianBlur stdDeviation="75"/>
<feColorMatrix type="matrix" values="0 0 0 0 0 0 0 0 0 0.0933607 0 0 0 0 0.933606 0 0 0 1 0"/>
<feBlend mode="normal" in2="BackgroundImageFix" result="effect1_dropShadow_1144_714"/>
<feBlend mode="normal" in="SourceGraphic" in2="effect1_dropShadow_1144_714" result="shape"/>
</filter>
<filter id="filter1_i_1144_714" x="114.382" y="238.071" width="201.769" height="44.916" filterUnits="userSpaceOnUse" color-interpolation-filters="sRGB">
<feFlood flood-opacity="0" result="BackgroundImageFix"/>
<feBlend mode="normal" in="SourceGraphic" in2="BackgroundImageFix" result="shape"/>
<feColorMatrix in="SourceAlpha" type="matrix" values="0 0 0 0 0 0 0 0 0 0 0 0 0 0 0 0 0 0 127 0" result="hardAlpha"/>
<feOffset dx="-4" dy="-4"/>
<feGaussianBlur stdDeviation="10"/>
<feComposite in2="hardAlpha" operator="arithmetic" k2="-1" k3="1"/>
<feColorMatrix type="matrix" values="0 0 0 0 0 0 0 0 0 0 0 0 0 0 0 0 0 0 0.25 0"/>
<feBlend mode="normal" in2="shape" result="effect1_innerShadow_1144_714"/>
</filter>
<radialGradient id="paint0_radial_1144_714" cx="0" cy="0" r="1" gradientUnits="userSpaceOnUse" gradientTransform="translate(225.502 305.999) rotate(90) scale(23 71.5)">
<stop offset="0.586179"/>
<stop offset="0.758065" stop-opacity="0.622228"/>
<stop offset="1" stop-opacity="0"/>
</radialGradient>
<linearGradient id="paint1_linear_1144_714" x1="183.002" y1="178.499" x2="278.502" y2="259.499" gradientUnits="userSpaceOnUse">
<stop stop-color="#5D70C8"/>
<stop offset="1" stop-color="#A7FAE6"/>
</linearGradient>
<linearGradient id="paint2_linear_1144_714" x1="217" y1="256.5" x2="218.785" y2="273.929" gradientUnits="userSpaceOnUse">
<stop stop-color="#FCD4A3"/>
<stop offset="1" stop-color="#BF7F29"/>
</linearGradient>
<radialGradient id="paint3_radial_1144_714" cx="0" cy="0" r="1" gradientUnits="userSpaceOnUse" gradientTransform="translate(257 228) rotate(90) scale(3.5 12.8333)">
<stop stop-color="#28346B"/>
<stop offset="1" stop-color="#5E70C9" stop-opacity="0"/>
</radialGradient>
</defs>
</svg>
